<svg xmlns="http://www.w3.org/2000/svg" viewBox="0 0 588.96 131.98"><defs><style>.cls-1{fill:#e31818;}.cls-2{fill:#1d1d22;}</style></defs><g id="Layer_2" data-name="Layer 2"><g id="Capa_1" data-name="Capa 1"><path class="cls-1" d="M110.22,9.3l-3.58,7.55-4,8.27L97.39,35.45l-3.66,7.2c-1.84,2.82-5.15,4.28-9.6,4.67a60.15,60.15,0,0,1-10.3.53,49.83,49.83,0,0,1-7.51-.53c-4.78-.75-6.52-1.49-7.59-2.36a3.13,3.13,0,0,1-.87-3.49l3.16-6,.07-.21H5.25l-.09.21-4,8.62c-4.37,8.44,3.74,13.34,24.43,16.59C37.52,62.29,54.45,63,77.66,63c32-1.06,76.09.74,84-18.44l3.24-9.07,6.71-18.6L177.43.59h-63L110.22,9.3Z"/><path class="cls-1" d="M352.8,28.43c-4.18-.24-8.46-.45-13.69-.45,20.07-1.63,29-6.08,30.8-11.13a6.78,6.78,0,0,0,.35-2.65C370.26,3.55,353.84.59,339.81.59H205.08l-4.53,16.26-3.4,12.08-1.65,6.52-7,27.36L339.59,63c24.4,0,43.27-6.23,45.76-15.4,1.19-4.31-.17-8.51-6-12.11-5.32-3.25-13.95-5.84-26.53-7Zm-91-16.36h28.26c6.54-.23,12.58,1.18,12.74,4.78V17c-.53,2.09-2.71,4.45-12.22,4.68H260.31l1.49-9.56ZM294.86,45.7H257.08l1.83-13.27h34.56c8.92,0,15,2.13,14.92,7.65,0,4.46-7.51,5.39-13.53,5.62Z"/><path class="cls-1" d="M580.51,35.45c-.1-.06-.1-.15-.17-.21H514.72l0,.21,3.43,6.49c3,7.32-43,7.53-45.56,1.22l-3-7.71-7.16-18.6-.25-.79c-1.84-5.13,36.82-6.35,40.13-.74l1,1.53,3.33,4.78h65.62s-3.27-6.19-6.62-9.06C551.49.42,502.39.09,478,.09c-18,0-65.8-1.63-74.7,9.21a7.84,7.84,0,0,0-2.36,7.2l.09.35,4.63,18.6,2.88,11.87c1.83,6.31,15.53,11.27,35.87,13.9,21.37,2.48,46.77,2.48,61.87,2.48,19.35,0,43-.74,59.52-3,17-2.6,26.52-7,22.15-15a69.2,69.2,0,0,0-7.4-10.25Z"/><path class="cls-2" d="M86.5,87.08h29.9V89H102.56v32.41h-2.21V89H86.5Z"/><path class="cls-2" d="M119.47,87.08h2.21v14.61h.1c1.54-2.93,4.76-5.67,10.38-5.67,11.3,0,11.3,7.21,11.3,10.19v15.2h-2.21v-15.1c0-5-1.88-8.37-9.14-8.37s-10.43,4.52-10.43,9.09v14.38h-2.21Z"/><path class="cls-2" d="M150.36,109.58c.14,6.15,4.32,10.67,11.73,10.67,7.64,0,9.61-4.8,10.48-7h2.21c-2.07,6.21-6.4,9-12.93,9-8.42,0-13.71-5.1-13.71-13.27,0-5.15,3.27-12.89,13.76-12.89,8.55,0,13.46,5.67,13.55,13.56ZM173,107.66c-.91-6.74-5.62-9.72-11.3-9.72-6.34,0-10.33,3.85-11.29,9.72Z"/><path class="cls-2" d="M192.9,110.06c0,6.4,3.94,10.19,13.18,10.19,8.41,0,11.49-3.6,11.49-7.64,0-3.85-1.83-5.58-9-7.07l-6.4-1.35c-7.5-1.58-10.38-3.79-10.38-9s4.47-8.89,13-8.89,14.14,3.17,14.38,10.48H216.9c-.29-3.94-2.51-8.56-11.55-8.56-8.36,0-11.1,3.08-11.1,7,0,3.66,1.58,5.48,8.12,6.78l7.07,1.4c6.88,1.34,10.63,3.55,10.63,9,0,4.67-3.08,9.72-13.8,9.72-11.25,0-15.58-4.86-15.58-12.12Z"/><path class="cls-2" d="M237.33,96c8.8,0,13.9,6.15,13.9,13.08s-5.1,13.08-13.9,13.08-13.9-6.16-13.9-13.08S228.53,96,237.33,96Zm0,24.23c7.79,0,11.68-5.53,11.68-11.15s-3.89-11.16-11.68-11.16-11.69,5.53-11.69,11.16S229.54,120.25,237.33,120.25Z"/><path class="cls-2" d="M256.08,87.08h2.22v34.33h-2.22Z"/><path class="cls-2" d="M287.28,116h-.1c-1.15,2.93-4.57,6.16-10.91,6.16-8.66,0-13.13-6.16-13.13-13.13,0-7.84,5.63-13,13.13-13,6.06,0,9.47,3.32,10.91,6h.1v-15h2.21v34.33h-2.21Zm.29-6.68c0-8.66-6.25-11.4-11.26-11.4-5.67,0-11,3.56-11,11.06,0,7.07,4.57,11.25,10.68,11.25C285.26,120.25,287.57,113.72,287.57,109.34Z"/><path class="cls-2" d="M296.5,109.58c.14,6.15,4.32,10.67,11.73,10.67,7.64,0,9.61-4.8,10.48-7h2.21c-2.07,6.21-6.39,9-12.93,9-8.42,0-13.7-5.1-13.7-13.27,0-5.15,3.26-12.89,13.75-12.89,8.55,0,13.46,5.67,13.55,13.56Zm22.59-1.92c-.91-6.74-5.62-9.72-11.29-9.72-6.35,0-10.34,3.85-11.3,9.72Z"/><path class="cls-2" d="M326,96.79h2.21v5.82h.1C329.94,98.28,333.7,96,338.5,96a6.08,6.08,0,0,1,1.83.29v2.21a7.24,7.24,0,0,0-2.55-.29c-6.39,0-9.57,4.86-9.57,9.86v13.32H326Z"/><path class="cls-2" d="M343.67,87.08h2.22v5.09h-2.22Zm0,9.71h2.22v24.62h-2.22Z"/><path class="cls-2" d="M352.08,96.79h2.21v4.9h.1c1.54-2.93,4.76-5.67,10.39-5.67,11.3,0,11.3,7.21,11.3,10.19v15.2h-2.22v-15.1c0-5-1.87-8.37-9.13-8.37s-10.44,4.52-10.44,9.09v14.38h-2.21Z"/><path class="cls-2" d="M405.76,96.79H408V120.2c0,5.63-2,11.78-13.46,11.78-7.65,0-11.93-2.25-12.75-8.26H384c.53,3.89,3.31,6.34,10.53,6.34,9.56,0,11.25-5.19,11.25-9.76v-5.09h-.1c-2.16,4.08-6.35,5.91-11.54,5.91-9.57,0-13.37-6.11-13.37-12.69S384.79,96,394.17,96c4.42,0,9.13,1.2,11.49,5.72l.1.05ZM383,108.33c0,7,4.13,10.87,11.44,10.87,6.39,0,11.35-3.47,11.35-10.92,0-6.49-4.38-10.34-11.59-10.34C388.35,97.94,383,101.21,383,108.33Z"/><path class="cls-2" d="M460.28,108.38c-.77,6.54-6.59,13.8-16.88,13.8s-18.27-6.59-18.27-17.94c0-8.32,5.67-17.93,18.27-17.93,8.27,0,14.57,3.89,16.3,11.54h-2.21c-1.64-6.59-7.65-9.62-14.09-9.62-9.81,0-16.06,7.36-16.06,16s5.53,16,16.06,16c7.6,0,13.37-4.42,14.66-11.87Z"/><path class="cls-2" d="M477.74,96c8.8,0,13.89,6.15,13.89,13.08s-5.09,13.08-13.89,13.08-13.9-6.16-13.9-13.08S468.94,96,477.74,96Zm0,24.23c7.79,0,11.68-5.53,11.68-11.15s-3.89-11.16-11.68-11.16-11.69,5.53-11.69,11.16S470,120.25,477.74,120.25Z"/><path class="cls-2" d="M496.25,116.6h2.5v4.81h-2.5Z"/></g></g></svg>